# xmcd
# Track frame offsets:
# 150
# 19153
# 28258
# 56884
# 79561
# 103637
# 122655
# 135957
# 157054
# 181673
# 198632
# 230562
# 253210
# 269184
#
# Disc length: 3991 seconds
# Revision: 1
# Processed by: cddbd v1.5.2PL0 Copyright (c) Steve Scherf et al.
# Submitted via: VisiTrax 2.11.3.279 - For more info visit www.synapsa.com
#
DISCID=c80f950e
DTITLE=Raymond Froggatt - Raymond Froggatt Live At Birmingham Town Hall
DYEAR=1998
DGENRE=Country Pop
TTITLE0=Intro - Give Me A Call (Live)*
TTITLE1=Roly (Live)*
TTITLE2=Teach Me Pa (Live)*
TTITLE3=Don't Let Me Cry Again (Live)*
TTITLE4=Wings On My Heels (Live)*
TTITLE5=Charlie (Live)*
TTITLE6=Wishgiver (Live)*
TTITLE7=Under The Sun (Live)*
TTITLE8=Lonely Old World (Live)*
TTITLE9=Life Goes On The Same (Live)*
TTITLE10=Spin A Thought (Live)*
TTITLE11=Runaway (Live)*
TTITLE12=Always Goodbye (Live)*
TTITLE13=I Will See You Again (Live)*
EXTD=Red Balloon Music: RBM CD00021: 1998
EXTT0=
EXTT1=
EXTT2=
EXTT3=
EXTT4=
EXTT5=
EXTT6=
EXTT7=
EXTT8=
EXTT9=
EXTT10=
EXTT11=
EXTT12=
EXTT13=
PLAYORDER=
